 <svg width="102" height="103" viewBox="0 0 70 121" fill="none"
                                xmlns="http://www.w3.org/2000/svg">
                                <path
                                    d="M17.3347 83.9008C17.3347 79.9839 17.7823 76.4026 18.6776 73.1572C19.5729 69.9117 21.0278 66.946 23.0422 64.2601C25.0567 61.4623 27.7985 59.0002 31.2678 56.8738C33.1704 55.7547 35.4086 54.5236 37.9826 53.1807C40.5566 51.7258 43.0187 50.0471 45.3689 48.1446C47.7191 46.2421 49.6775 44.0038 51.2443 41.4298C52.923 38.8558 53.7624 35.8342 53.7624 32.3649C53.7624 28.6717 52.8671 25.5941 51.0765 23.132C49.2859 20.558 46.9916 18.6555 44.1938 17.4245C41.5079 16.0815 38.5422 15.41 35.2967 15.41C31.8274 15.41 28.6379 16.1375 25.7282 17.5923C22.8184 19.0472 20.3004 20.8938 18.174 23.132C16.0477 25.3703 14.2571 27.7205 12.8022 30.1826L0.715588 21.9569C2.73002 17.3685 5.52785 13.4516 9.10907 10.2061C12.6903 6.9606 16.7751 4.49852 21.3635 2.81981C25.952 1.14112 30.7642 0.301774 35.8003 0.301774C39.9411 0.301774 44.0259 0.973253 48.0548 2.31621C52.1956 3.54725 55.8887 5.50573 59.1342 8.19164C62.3797 10.8776 64.9537 14.2909 66.8562 18.4317C68.8706 22.4606 69.8779 27.3288 69.8779 33.0363C69.8779 36.9533 69.3742 40.3666 68.367 43.2764C67.4717 46.0742 66.1288 48.5923 64.3382 50.8305C62.5475 53.0688 60.4772 55.0832 58.127 56.8738C55.7768 58.5525 53.2028 60.1753 50.405 61.742C47.6072 63.4207 44.8653 65.1554 42.1794 66.946C39.4935 68.6247 37.2552 70.751 35.4646 73.325C33.674 75.899 32.7787 79.4243 32.7787 83.9008H17.3347ZM17.8383 121V99.8484H33.1144V121H17.8383Z"
                                    fill="white" />
                            </svg>