<svg width="103" height="103" viewBox="0 0 103 103" fill="none" xmlns="http://www.w3.org/2000/svg">
<path fill-rule="evenodd" clip-rule="evenodd" d="M56.5974 1.57257C66.4751 2.71088 73.5297 5.30116 81.3577 10.6647C84.6361 12.911 90.3289 18.3845 91.9743 20.8724C92.5542 21.7492 93.1839 22.4667 93.3739 22.4667C93.5639 22.4667 93.7192 22.6369 93.7192 22.8453C93.7192 23.0534 94.2525 24.0147 94.9045 24.9812C96.5901 27.4806 98.6246 32.0159 100.034 36.4165C104.094 49.0886 102.091 64.0835 94.7918 75.6754C94.1016 76.7715 93.309 77.9054 93.0306 78.1948C92.7522 78.4845 92.5243 78.8911 92.5243 79.0979C92.5243 79.3052 90.4827 81.5312 87.987 84.0445L83.4496 88.6145L92.8661 88.7213L102.283 88.8281L102.391 95.9063L102.5 102.985L82.4766 102.881L62.4531 102.778V93.2124V83.6468L64.2454 83.0266C68.7418 81.4706 73.0959 78.7719 76.5926 75.3745C78.8915 73.1405 80.9738 70.7691 80.9738 70.3848C80.9738 70.2601 81.2243 69.8751 81.5306 69.5291C82.3093 68.6495 84.5441 64.4342 85.2455 62.5227C86.7128 58.5231 87.3369 54.8921 87.3357 50.3664C87.3334 40.6688 84.0319 32.884 76.8032 25.5324C75.1838 23.8852 73.4878 22.4196 73.035 22.2762C72.5821 22.1323 72.2113 21.8688 72.2113 21.6907C72.2113 21.3108 65.6494 18.0163 63.0505 17.0912C60.6337 16.2315 54.6768 15.308 51.5 15.3012C48.3838 15.2944 42.8427 16.1534 40.1303 17.0637C37.5378 17.9334 30.7887 21.2765 30.7887 21.6907C30.7887 21.8688 30.4263 22.1295 29.9837 22.2702C28.5081 22.7389 22.4464 29.3392 20.6003 32.4879C17.0217 38.5911 15.6511 43.5712 15.6583 50.4449C15.6651 56.9754 17.5844 63.7491 20.7648 68.4641C21.4586 69.4928 22.0262 70.3968 22.0262 70.4729C22.0262 70.7479 24.2547 73.2796 25.9757 74.9596C29.7356 78.6308 34.9441 81.9537 38.7076 83.082C39.818 83.4148 40.4326 83.8532 40.5688 84.41C40.6807 84.8672 40.7214 89.1869 40.6596 94.0095L40.5469 102.778L20.5235 102.881L0.5 102.985L0.608738 95.9063L0.717471 88.8281L10.1431 88.7213L19.5691 88.6145L15.3209 84.3371C11.2806 80.2685 10.4665 79.2609 7.84096 75.0776C2.51935 66.5988 -0.0149909 55.2979 1.16237 45.2962C2.05694 37.6951 4.65501 30.0829 8.09548 24.9812C8.74749 24.0147 9.2808 23.0534 9.2808 22.8453C9.2808 22.6369 9.43614 22.4667 9.62612 22.4667C9.81611 22.4667 10.4526 21.7393 11.0405 20.8505C12.6563 18.4069 18.3782 12.9202 21.6809 10.6471C25.2902 8.16328 29.0613 6.1525 32.7706 4.734C37.8891 2.77664 38.7375 2.60087 50.8221 0.986274C50.997 0.963157 53.5958 1.22701 56.5974 1.57257Z" fill="white"/>
</svg>
