<svg width="125" height="112" viewBox="0 0 125 112" fill="none" xmlns="http://www.w3.org/2000/svg">
<path fill-rule="evenodd" clip-rule="evenodd" d="M0.772461 55.8955V111.026H35.2118H69.651V100.678V90.3288H46.1269H22.6028V69.6312V48.9336H41.6103H60.6178V53.0731V57.2127H46.3151H32.0125V60.4114V63.6101H49.5144H67.0163V42.9125H41.6103H16.2043V69.6312V96.3499H39.7284H63.2525V100.489V104.629H35.2118H7.17101V55.7051V6.78088L34.7413 6.87759L62.3115 6.97393V11.1135V15.253L39.2579 15.3501L16.2043 15.4468V24.8521V34.2571H19.4035H22.6028V27.8597V21.4623H45.5624H68.5219V11.1135V0.764648H34.6472H0.772461V55.8955ZM80.9426 76.405V111.026H102.585H124.227V104.441V97.8552L109.454 97.853L94.6807 97.8511L94.5907 85.0581L94.5012 72.2655L106.447 72.2647L118.393 72.264L118.267 74.7108L118.14 77.1576H109.328H100.515V79.233V81.3084L111.524 81.2087L122.533 81.109V74.7115V68.3141H106.537H90.5404V85.0603V101.807L105.314 101.905L120.087 102.003V104.445V106.887H102.589H85.0915L84.9933 76.405L84.8947 45.9231L102.208 45.9223L119.522 45.9215L119.396 48.3639L119.27 50.8062L104.905 50.9048L90.5404 51.0034V56.8363V62.6693L92.3859 62.7863C93.5504 62.8601 94.3367 62.7333 94.5162 62.4428C94.6732 62.1891 94.707 60.4005 94.5915 58.4681L94.3818 54.9547H108.91H123.439L123.551 48.6514C123.612 45.1847 123.61 42.2212 123.546 42.0658C123.482 41.9104 113.87 41.7835 102.186 41.7835H80.9426V76.405Z" fill="white"/>
</svg>