<svg width="51" height="63" viewBox="0 0 51 63" fill="none" xmlns="http://www.w3.org/2000/svg">
<g clip-path="url(#clip0_45_1855)">
<path d="M27.8439 48.8817V44.4615C28.4979 44.0622 29.0385 43.5016 29.414 42.8334C29.7896 42.1651 29.9874 41.4115 29.9886 40.6448C29.9886 37.2323 26.1882 34.7103 22.5924 37.0809C22.3268 37.2567 22.0998 37.4849 21.9255 37.7517C20.1632 40.4646 21.1413 43.2202 23.1539 44.4615V48.8817H27.8439Z" fill="#AAD4C8"/>
<path d="M5.59777 62.9992H45.4022C46.6455 62.9983 47.8531 62.5829 48.8342 61.8186C49.8153 61.0542 50.514 59.9845 50.8199 58.7783H0.180054C0.487016 59.9839 1.186 61.053 2.16688 61.8172C3.14776 62.5814 4.35477 62.9972 5.59777 62.9992Z" fill="#616E7D"/>
<path d="M0 57.393C0.00198206 57.8608 0.0624719 58.3265 0.180058 58.7793H50.8199C50.9375 58.3265 50.998 57.8608 51 57.393V56.5015H0V57.393Z" fill="#82BFAB"/>
<path fill-rule="evenodd" clip-rule="evenodd" d="M43.7732 25V25.2012H47.5022C48.4299 25.2012 49.3195 25.5701 49.9755 26.2267C50.6315 26.8832 51 27.7737 51 28.7022V56.5013H0V28.7022C0 27.7737 0.368519 26.8832 1.02448 26.2267C1.68045 25.5701 2.57013 25.2012 3.49781 25.2012H7.11494V17.2416C7.11494 11.0916 10.437 5.35758 15.8706 2.49215C29.3284 -4.60584 42.8851 4.46382 43.8381 17H35.7268C34.7651 9.98124 26.7454 5.19211 19.0978 10.0508C17.8905 10.8261 16.898 11.8936 16.2121 13.1546C15.5262 14.4156 15.1691 15.8293 15.1739 17.2651V25.2012H35.7505L35.7506 25H43.7732ZM27.8439 48.8818V44.4616C28.4983 44.0626 29.0394 43.5021 29.4153 42.8338C29.7912 42.1655 29.9894 41.4118 29.9908 40.6449C29.9908 37.2324 26.1904 34.7104 22.5946 37.081C22.3289 37.2568 22.102 37.485 21.9276 37.7518C20.1654 40.4647 21.1435 43.2203 23.1561 44.4616V48.8818H27.8439Z" fill="#616E7D"/>
</g>
<defs>
<clipPath id="clip0_45_1855">
<rect width="51" height="63" fill="white"/>
</clipPath>
</defs>
</svg>
